<svg width="17" height="20" viewBox="0 0 17 20" fill="none" xmlns="http://www.w3.org/2000/svg">
<path d="M8.17722 20.0005C6.73967 19.7053 5.61634 18.8553 4.52443 17.9501C3.08295 16.7498 1.8143 15.3882 0.812725 13.7943C0.471012 13.2473 0.172505 12.6806 0.0350341 12.043C-0.0553037 11.618 0.0153955 11.2677 0.349252 10.9371C2.57235 8.73723 4.7758 6.51763 6.99104 4.3059C7.44273 3.85726 7.98083 3.62507 8.6132 3.8612C8.85671 3.95171 9.06488 4.14061 9.27698 4.29803C9.38696 4.37674 9.46159 4.50661 9.57156 4.58532C10.0979 4.95919 10.2 5.51802 10.2471 6.10047C10.2982 6.75376 10.2393 7.39524 10.0272 8.01704C10.0036 8.09181 9.95255 8.16659 9.88971 8.21775C9.38696 8.62703 9.22199 9.3 9.49693 9.85883C9.78366 10.4452 10.4239 10.7522 11.0327 10.6026C11.6572 10.4452 12.0853 9.89425 12.0696 9.24884C12.0617 8.84742 11.8889 8.52078 11.5943 8.25317C11.5354 8.19807 11.4844 8.09181 11.4883 8.00917C11.5158 6.2815 11.1152 4.66403 10.2432 3.17249C9.97219 2.70811 9.61477 2.31062 9.19057 1.96824C8.36968 1.30708 7.07353 1.5196 6.40974 2.10992C5.77345 2.67662 5.46708 3.41255 5.3414 4.239C5.30605 4.47513 5.30605 4.73093 5.22749 4.95132C5.09788 5.30551 4.71689 5.47867 4.36732 5.39996C3.99811 5.31338 3.75067 5.00641 3.7703 4.58925C3.83708 3.13314 4.32411 1.86198 5.45923 0.90173C6.72396 -0.164779 8.89992 -0.444196 10.4632 1.01979C11.3744 1.87379 11.9518 2.93243 12.372 4.08552C12.7609 5.15596 12.9808 6.26182 13.028 7.39917C13.0319 7.50936 13.0633 7.63136 13.0319 7.72975C12.9573 7.97375 13.079 8.11149 13.2361 8.26497C14.0688 9.08748 14.8819 9.93361 15.7263 10.7443C16.449 11.437 16.3233 12.228 15.7892 12.8537C15.7263 12.9285 15.6556 12.9954 15.5849 13.0662C13.4247 15.2307 11.2605 17.3913 9.10023 19.5558C8.89992 19.7565 8.69568 19.9454 8.40503 20.0005C8.33433 20.0005 8.25577 20.0005 8.17722 20.0005Z" fill="black"/>
</svg>
