<svg width="17" height="18" viewBox="0 0 17 18" fill="none" xmlns="http://www.w3.org/2000/svg">
<path d="M8.48462 17.9791C5.92284 17.9791 3.36106 17.9791 0.799276 17.9791C0.645569 17.9791 0.450874 18.0209 0.348402 17.9372C0.194695 17.7908 0 17.5712 0 17.3933C0 17.2155 0.225437 17.0064 0.389391 16.8704C0.471368 16.7972 0.655816 16.839 0.789029 16.839C5.91259 16.839 11.0362 16.839 16.1495 16.839C16.2827 16.839 16.4569 16.7867 16.5491 16.8599C16.7336 16.9959 17.0102 17.2051 17 17.3724C16.9897 17.5816 16.7541 17.8012 16.5594 17.9581C16.4671 18.0313 16.2622 17.9791 16.1085 17.9791C13.5774 17.9791 11.0259 17.9791 8.48462 17.9791Z" fill="black"/>
<rect x="13.4858" width="4" height="14.8296" rx="1" transform="rotate(45 13.4858 0)" fill="#020202"/>
<path d="M1.36326 14.7062L1.93973 11.7684L4.30105 14.1297L1.36326 14.7062Z" fill="black"/>
</svg>
