<svg width="24" height="20" viewBox="0 0 24 20" fill="none" xmlns="http://www.w3.org/2000/svg">
<path d="M17.6119 9.54059C18.5443 9.94657 19.4697 10.3489 20.395 10.7519C20.8949 10.9696 21.4772 10.747 21.7041 10.2513L22.9455 7.53988C23.3168 6.72905 22.5203 5.8719 21.6836 6.18045L21.3516 6.30289C21.1922 5.96034 21.0516 5.61322 20.8781 5.28438C19.4719 2.64447 17.2875 0.954568 14.3156 0.260337C13.7812 0.137019 13.2234 0.114183 12.675 0.0411058C12.5766 0.0274039 12.4734 0.0137019 12.375 0H11.9062C11.8266 0.0137019 11.7422 0.0319712 11.6578 0.0411058C11.1094 0.109615 10.5516 0.137019 10.0172 0.260337C7.47187 0.840385 5.47031 2.20144 4.0125 4.31154C3.59062 4.92356 3.25313 5.57668 3 6.29375C4.07765 6.67267 5.14125 7.04703 6.20485 7.42139L6.20625 7.42188C7.31719 4.51707 10.3031 3.00986 13.1391 3.43462C15.7031 3.81827 17.5266 5.6589 18.1172 7.51779C17.9653 7.57529 17.8134 7.63265 17.6611 7.69C16.8206 8.0065 16.7884 9.18206 17.6119 9.54059Z" fill="#020202"/>
<path d="M6.63088 9.79735C5.71137 9.36297 4.7987 8.93245 3.8862 8.50129C3.39322 8.26836 2.80441 8.47295 2.56235 8.9615L1.23838 11.6336C0.842458 12.4326 1.61224 13.3138 2.45801 13.0311L2.79369 12.9189C2.94248 13.2661 3.0724 13.6174 3.23567 13.9514C4.56032 16.6332 6.69185 18.3893 9.64104 19.1743C10.1714 19.314 10.7282 19.3539 11.2742 19.4438C11.3721 19.4605 11.4748 19.4773 11.5728 19.494L12.0413 19.5084C12.1214 19.4972 12.2063 19.4815 12.2909 19.4749C12.8412 19.4233 13.3995 19.413 13.9375 19.3061C16.4994 18.8044 18.5417 17.5053 20.0635 15.4409C20.504 14.8421 20.8613 14.1997 21.1363 13.4907C20.0708 13.0789 19.0192 12.6721 17.9676 12.2653L17.9662 12.2648C16.7667 15.1342 13.736 16.5491 10.9144 16.0376C8.36328 15.5755 6.59714 13.6798 6.06379 11.8037C6.21733 11.7509 6.371 11.6982 6.52498 11.6456C7.37478 11.355 7.44294 10.181 6.63088 9.79735Z" fill="#020202"/>
</svg>
